<?xml version="1.0" standalone="no"?>
<!DOCTYPE svg PUBLIC "-//W3C//DTD SVG 20010904//EN"
 "http://www.w3.org/TR/2001/REC-SVG-20010904/DTD/svg10.dtd">
<svg version="1.0" xmlns="http://www.w3.org/2000/svg"
 width="260.000000pt" height="260.000000pt" viewBox="0 0 260.000000 260.000000"
 preserveAspectRatio="xMidYMid meet">
<metadata>
Created by potrace 1.11, written by Peter Selinger 2001-2013
</metadata>
<g transform="translate(0.000000,260.000000) scale(0.100000,-0.100000)"
fill="#000000" stroke="none">
<path d="M2071 2534 c0 -11 3 -14 6 -6 3 7 2 16 -1 19 -3 4 -6 -2 -5 -13z"/>
<path d="M2102 2405 c0 -16 2 -22 5 -12 2 9 2 23 0 30 -3 6 -5 -1 -5 -18z"/>
<path d="M2131 2264 c0 -11 3 -14 6 -6 3 7 2 16 -1 19 -3 4 -6 -2 -5 -13z"/>
<path d="M2547 2153 c-20 -14 -35 -28 -33 -30 2 -3 23 9 47 26 51 37 40 40
-14 4z"/>
<path d="M2162 2130 c0 -14 2 -19 5 -12 2 6 2 18 0 25 -3 6 -5 1 -5 -13z"/>
<path d="M2465 2090 c-3 -6 1 -7 9 -4 18 7 21 14 7 14 -6 0 -13 -4 -16 -10z"/>
<path d="M2171 2064 c0 -11 3 -14 6 -6 3 7 2 16 -1 19 -3 4 -6 -2 -5 -13z"/>
<path d="M2420 2060 c-9 -6 -10 -10 -3 -10 6 0 15 5 18 10 8 12 4 12 -15 0z"/>
<path d="M2182 2000 c0 -14 2 -19 5 -12 2 6 2 18 0 25 -3 6 -5 1 -5 -13z"/>
<path d="M2297 1969 c-26 -18 -45 -34 -43 -36 4 -5 96 56 96 64 0 6 -4 3 -53
-28z"/>
<path d="M2201 1923 c-1 -36 9 -42 30 -16 10 12 10 15 1 9 -8 -5 -15 1 -21 16
-9 21 -10 21 -10 -9z"/>
<path d="M2159 1863 c-13 -16 -12 -17 4 -4 9 7 17 15 17 17 0 8 -8 3 -21 -13z"/>
<path d="M2110 1830 c-8 -5 -12 -12 -9 -15 4 -3 12 1 19 10 14 17 11 19 -10 5z"/>
<path d="M2036 1775 c-25 -20 -46 -38 -46 -41 0 -5 55 33 84 59 34 30 11 19
-38 -18z"/>
<path d="M284 1736 c-17 -8 -40 -26 -52 -41 -20 -26 -22 -39 -22 -182 0 -183
8 -211 74 -243 119 -57 240 6 248 130 l3 55 -62 3 -63 3 0 -29 c0 -57 -12 -92
-30 -92 -27 0 -30 19 -30 176 0 123 2 146 16 151 22 8 34 -14 34 -64 l0 -43
65 0 c70 0 69 -1 65 60 -3 52 -26 87 -70 110 -46 23 -129 26 -176 6z"/>
<path d="M576 1742 c-4 -3 -6 -113 -6 -244 l0 -238 75 0 75 0 0 143 c0 157 5
171 60 179 24 3 25 6 28 86 3 77 2 82 -18 82 -12 0 -32 -11 -45 -24 -24 -24
-24 -24 -27 -2 -3 19 -10 21 -70 22 -37 1 -69 -1 -72 -4z"/>
<path d="M905 1741 c-35 -16 -64 -50 -76 -89 -16 -56 -8 -310 11 -340 24 -38
82 -62 147 -62 77 0 121 24 151 80 19 39 22 59 22 175 0 104 -4 137 -18 164
-28 57 -63 75 -145 78 -40 2 -81 -1 -92 -6z m103 -236 c2 -117 -1 -160 -10
-166 -7 -4 -16 -5 -20 -3 -10 6 -11 318 -1 328 22 22 28 -11 31 -159z"/>
<path d="M1250 1732 c-19 -9 -40 -28 -47 -42 -16 -31 -17 -97 -2 -138 10 -29
25 -42 126 -105 46 -29 64 -67 43 -92 -27 -32 -50 -8 -50 53 0 22 -3 23 -62
20 -72 -3 -78 -12 -58 -85 15 -52 53 -83 111 -90 37 -5 42 -10 70 -64 l29 -59
51 0 52 0 -7 -40 c-8 -50 -15 -122 -9 -95 11 55 35 102 60 117 l28 17 -25 10
c-14 5 -21 10 -17 10 4 1 3 9 -2 19 -5 10 -6 24 -1 32 11 19 152 7 187 -15 20
-14 30 -15 50 -6 33 15 36 14 30 -8 -3 -15 0 -17 16 -13 12 3 18 1 14 -5 -3
-5 1 -10 9 -10 8 0 14 7 13 16 -1 9 -1 31 0 49 l1 33 83 -3 82 -3 0 -77 c0
-43 -2 -179 -3 -303 l-2 -225 -69 0 c-39 0 -72 4 -75 8 -3 5 -6 101 -7 213 -1
200 -14 342 -23 257 0 -6 -7 -13 -15 -16 -8 -3 -11 0 -8 5 3 5 0 10 -7 10 -10
0 -9 -7 3 -31 22 -43 30 -431 9 -438 -7 -2 -41 -2 -75 0 -50 3 -63 7 -64 20 0
14 -2 13 -10 -3 -8 -16 16 -69 126 -280 75 -143 151 -286 168 -318 l32 -57
208 2 208 3 90 209 89 210 0 439 0 439 -37 -6 c-21 -3 -197 -8 -391 -12 l-354
-6 16 30 c9 18 16 56 16 90 0 66 -19 101 -71 127 -17 9 -26 21 -23 29 4 10 -2
12 -20 9 -46 -9 -92 57 -67 96 16 25 41 4 41 -34 0 -33 2 -35 36 -35 19 0 33
-4 30 -8 -3 -5 10 -4 29 2 19 6 35 15 35 20 0 5 8 18 17 28 13 15 14 18 2 13
-10 -4 -18 4 -24 27 -16 53 -64 78 -149 78 -121 0 -161 -39 -154 -148 4 -67 2
-64 74 -122 11 -9 34 -22 52 -29 19 -8 40 -25 49 -37 19 -30 10 -74 -16 -74
-21 0 -31 19 -31 60 0 26 -4 28 -42 32 -57 5 -88 -1 -88 -19 0 -8 -4 -11 -10
-8 -5 3 -10 17 -10 30 0 35 -41 77 -109 114 -67 35 -86 60 -76 98 9 39 39 26
43 -20 l3 -37 65 0 64 0 0 49 c0 43 -4 52 -35 80 -33 29 -41 31 -108 31 -49 0
-83 -6 -107 -18z m313 -439 l20 -23 -57 0 -57 0 20 26 c12 15 21 37 21 49 0
36 14 38 23 3 5 -18 18 -43 30 -55z m280 -50 c-7 -2 -21 -2 -30 0 -10 3 -4 5
12 5 17 0 24 -2 18 -5z m365 -51 l3 -43 -83 3 c-83 3 -83 3 -86 31 -6 54 1 58
85 55 l78 -3 3 -43z m367 -257 l0 -300 -72 -3 c-60 -2 -73 0 -73 13 0 19 -9
19 -34 0 -32 -24 -103 -19 -131 9 -30 30 -38 90 -33 278 3 137 4 148 26 171
29 31 75 39 125 22 l37 -13 0 58 c0 31 3 60 7 64 4 4 39 5 78 4 l70 -3 0 -300z
m-1022 288 c-7 -2 -21 -2 -30 0 -10 3 -4 5 12 5 17 0 24 -2 18 -5z m120 0
c-18 -2 -48 -2 -65 0 -18 2 -4 4 32 4 36 0 50 -2 33 -4z m533 -310 c-3 -120
-5 -233 -6 -251 l0 -33 -72 3 -73 3 -5 240 c-3 132 -4 243 -2 248 2 4 39 7 84
7 l80 0 -6 -217z"/>
<path d="M2386 912 c-9 -156 1 -215 30 -191 11 9 14 43 14 149 0 144 -4 170
-25 170 -9 0 -14 -36 -19 -128z"/>
<path d="M1943 1704 c-20 -18 -22 -22 -7 -15 21 10 52 41 41 41 -3 0 -19 -12
-34 -26z"/>
<path d="M1890 1665 c-11 -13 -10 -14 4 -9 9 3 16 10 16 15 0 13 -6 11 -20 -6z"/>
<path d="M1862 1503 l3 -48 98 -3 97 -3 0 51 0 50 -101 0 -100 0 3 -47z"/>
<path d="M1645 1028 c-2 -7 -6 -31 -7 -53 l-3 -40 -54 0 c-57 0 -70 -10 -49
-37 12 -16 18 -15 78 11 l65 28 3 51 c2 42 0 52 -13 52 -9 0 -18 -6 -20 -12z"/>
<path d="M1656 838 c-20 -28 -21 -102 -2 -117 22 -18 36 16 36 83 0 60 -10 69
-34 34z"/>
</g>
</svg>
